<?xml version="1.0" encoding="UTF-8"?>
<svg id="Layer_1" data-name="Layer 1" xmlns="http://www.w3.org/2000/svg" version="1.1" viewBox="0 0 1000 438">
  <defs>
    <style>
      .cls-1 {
        fill: #00d8d8;
      }

      .cls-1, .cls-2, .cls-3 {
        stroke-width: 0px;
      }

      .cls-2 {
        fill: #001a43;
      }

      .cls-3 {
        fill: #001a43;
      }
    </style>
  </defs>
  <path class="cls-2" d="M612.33,414.646c-2.181-.208-4.207-1.039-6.076-2.597-1.87-1.558-2.805-3.48-2.805-5.816v-37.703h25.394v-20.773h-25.394v-26.122l-23.785,6.803v19.319h-14.956v20.773h14.956v37.858c0,25.719,18.063,31.263,32.769,31.263,5.401,0,11.269-.883,17.605-2.649v-22.462c-5.372,1.79-10.023,2.312-13.814,2.312-.416,0-1.714-.052-3.895-.208Z"/>
  <path class="cls-2" d="M76.6,376.476c4.206-2.752,7.582-6.44,10.075-11.062,2.493-4.57,3.739-9.555,3.739-14.852,0-8.88-3.324-16.255-9.971-22.175-6.647-5.92-15.476-8.88-26.434-8.88H0v116.327h58.164c11.373,0,20.461-2.96,27.16-8.932,6.699-5.92,10.075-13.347,10.075-22.331,0-5.868-1.558-11.321-4.673-16.359-3.116-5.037-7.842-8.984-14.125-11.737ZM24.096,341.942h29.082c3.947,0,7.218,1.246,9.711,3.791s3.739,5.609,3.739,9.14c0,3.583-1.246,6.595-3.739,9.14s-5.764,3.843-9.711,3.843h-29.082v-25.914ZM66.213,409.713c-2.493,2.441-5.713,3.687-9.712,3.687H24.096v-25.447h32.406c3.999,0,7.219,1.246,9.712,3.739,2.493,2.493,3.739,5.505,3.739,9.036,0,3.583-1.246,6.543-3.739,8.984Z"/>
  <path class="cls-2" d="M169.921,393.25c0,6.128-1.818,11.217-5.401,15.372-3.635,4.154-8.361,6.232-14.229,6.232-4.881,0-8.984-1.714-12.36-5.141-3.376-3.428-5.09-7.894-5.09-13.451v-48.504h-24.096v54.632c0,10.542,3.583,19.007,10.802,25.343,7.219,6.388,15.788,9.556,25.759,9.556,9.763,0,17.968-3.168,24.616-9.607v8.153h24.096v-88.076h-24.096v45.492Z"/>
  <rect class="cls-2" x="211.986" y="347.758" width="24.097" height="88.076"/>
  <path class="cls-2" d="M224.294,312.184c-4.103,0-7.634,1.35-10.49,4.155-2.857,2.752-4.311,6.128-4.311,10.126s1.454,7.323,4.311,10.075c2.857,2.701,6.388,4.051,10.49,4.051s7.582-1.402,10.438-4.154c2.908-2.649,4.31-5.972,4.31-9.971s-1.402-7.374-4.31-10.126c-2.857-2.805-6.336-4.155-10.438-4.155Z"/>
  <rect class="cls-2" x="253.687" y="319.507" width="24.097" height="116.327"/>
  <path class="cls-2" d="M357.24,355.236c-6.751-6.024-14.852-8.984-24.252-8.984-11.996,0-22.227,4.362-30.743,13.139-8.569,8.829-12.827,19.63-12.827,32.406,0,12.256,4.31,22.902,12.879,31.886,8.568,8.984,18.799,13.45,30.691,13.45,9.504,0,17.606-2.856,24.252-8.621v7.322h24.097v-116.327h-24.097v35.729ZM351.891,408.311c-4.623,4.726-10.179,7.063-16.619,7.063-6.647,0-12.204-2.337-16.671-6.959-4.517-4.674-6.751-10.231-6.751-16.618,0-6.44,2.233-11.996,6.751-16.722,4.467-4.726,10.023-7.063,16.671-7.063,6.44,0,11.996,2.389,16.619,7.167,4.673,4.726,7.01,10.283,7.01,16.618,0,6.284-2.337,11.789-7.01,16.514Z"/>
  <path class="cls-2" d="M468.842,356.534c-8.361-6.855-17.865-10.283-28.615-10.283-12.412,0-23.058,4.362-31.886,13.139-8.984,8.829-13.45,19.63-13.45,32.406,0,12.412,4.362,23.058,13.19,31.99,8.829,8.88,19.526,13.346,32.146,13.346,8.413,0,16.619-2.077,24.616-6.232,7.945-4.155,13.658-9.66,17.085-16.515l-20.929-5.972c-5.4,4.986-12.36,7.478-20.773,7.478-5.297,0-9.919-1.298-13.762-3.947-3.895-2.597-6.491-6.336-7.842-11.217h66.161c.624-2.753.987-5.609.987-8.621,0-3.116-.415-6.336-1.142-9.659-2.233-10.386-7.531-19.059-15.788-25.914ZM418.623,382.448c1.35-4.206,3.895-7.738,7.738-10.594,3.791-2.908,8.362-4.362,13.711-4.362,5.297,0,9.867,1.454,13.606,4.362,3.791,2.856,6.336,6.388,7.634,10.594h-42.688Z"/>
  <path class="cls-2" d="M780.38,356.534c-8.309-6.855-17.813-10.283-28.563-10.283-12.412,0-23.058,4.362-31.938,13.139-8.932,8.829-13.451,19.63-13.451,32.406,0,12.412,4.415,23.058,13.191,31.99,8.829,8.88,19.526,13.346,32.198,13.346,8.413,0,16.618-2.077,24.564-6.232,7.997-4.155,13.71-9.66,17.137-16.515l-20.928-5.972c-5.453,4.986-12.36,7.478-20.773,7.478-5.349,0-9.919-1.298-13.814-3.947-3.895-2.597-6.491-6.336-7.79-11.217h66.109c.675-2.753.986-5.609.986-8.621,0-3.116-.363-6.336-1.142-9.659-2.233-10.386-7.478-19.059-15.787-25.914ZM730.214,382.448c1.298-4.206,3.895-7.738,7.686-10.594,3.843-2.908,8.414-4.362,13.762-4.362,5.297,0,9.815,1.454,13.606,4.362,3.739,2.856,6.284,6.388,7.634,10.594h-42.688Z"/>
  <path class="cls-2" d="M884.919,355.807c-7.219-6.388-15.788-9.556-25.758-9.556-9.764,0-17.917,3.22-24.564,9.608v-8.101h-24.097v88.076h24.097v-45.544c0-6.128,1.765-11.217,5.4-15.372,3.584-4.154,8.309-6.232,14.177-6.232,4.882,0,8.985,1.714,12.412,5.141,3.376,3.428,5.037,7.946,5.037,13.451v48.556h24.097v-54.684c0-10.542-3.584-19.007-10.802-25.343Z"/>
  <path class="cls-2" d="M975.904,319.507v35.729c-6.751-6.024-14.801-8.984-24.252-8.984-11.944,0-22.227,4.362-30.744,13.139-8.516,8.829-12.775,19.63-12.775,32.406,0,12.256,4.259,22.902,12.879,31.886,8.569,8.984,18.799,13.45,30.64,13.45,9.555,0,17.605-2.856,24.252-8.621v7.322h24.096v-116.327h-24.096ZM970.607,408.311c-4.674,4.726-10.178,7.063-16.618,7.063-6.647,0-12.205-2.337-16.723-6.959-4.466-4.674-6.699-10.231-6.699-16.618,0-6.44,2.233-11.996,6.699-16.722,4.518-4.726,10.075-7.063,16.723-7.063,6.44,0,11.944,2.389,16.618,7.167,4.673,4.726,6.959,10.283,6.959,16.618,0,6.284-2.285,11.789-6.959,16.514Z"/>
  <path class="cls-2" d="M547.112,346.722c-10.744-.003-18.798,4.308-24.096,12.818l.003-11.778-24.092-.007-.024,88.074,24.092.007v-44.144c.004-15.366,13.366-23.159,24.111-23.156,2.45,0,4.99.269,7.631.678l.006-21.815c-2.641-.409-5.181-.678-7.631-.678Z"/>
  <path class="cls-2" d="M692.684,346.722c-10.744-.003-18.798,4.308-24.096,12.818l.003-11.778-24.092-.007-.024,88.074,24.092.007v-44.144c.004-15.366,13.366-23.159,24.111-23.156,2.45,0,4.99.269,7.631.678l.006-21.815c-2.641-.409-5.181-.678-7.631-.678Z"/>
  <g>
    <path class="cls-3" d="M500.301,51.503h-46.505V.348h-44.667v141.341s0,.002,0,.004c.002,49.806,40.378,90.182,90.185,90.182s90.185-40.377,90.185-90.185c0-49.477-39.847-89.654-89.199-90.185ZM499.314,187.073c-25.065,0-45.383-20.319-45.383-45.384s20.318-45.383,45.383-45.383,45.383,20.319,45.383,45.383-20.319,45.384-45.383,45.384Z"/>
    <path class="cls-1" d="M563.657,27.039l-9.071,15.711c34.713,19.403,58.187,56.507,58.187,99.1,0,62.662-50.798,113.459-113.459,113.459-21.271,0-41.172-5.859-58.186-16.044l-9.069,15.707c19.696,11.754,42.699,18.52,67.255,18.52,72.588,0,131.643-59.055,131.643-131.643,0-49.233-27.171-92.232-67.301-114.81Z"/>
  </g>
</svg>