<?xml version="1.0" encoding="UTF-8"?>
<svg id="Capa_1" data-name="Capa 1" xmlns="http://www.w3.org/2000/svg" viewBox="0 0 1366 768">
  <defs>
    <style>
      .cls-1 {
        fill: #00204f;
      }
    </style>
  </defs>
  <path class="cls-1" d="M225.53,288.52l16.34,66.62,18.93-66.62h43.1v5.22s-13.8,1.23-13.8,1.23l-.57,108.49h13.07s0,6.54,0,6.54h-52.25l1.23-5.96,13.14-.57v-105.8l-31.98,112.42-4.33-2.3-28.99-110.11v101.23c0,5.25,10.83,4.88,14.37,4.57v6.54h-33.97v-6.54s10.93-.16,10.93-.16c1.39-.53,3.44-4.86,3.44-5.71v-103.84h-14.37s0-5.22,0-5.22h45.72Z"/>
  <path class="cls-1" d="M836.82,288.52v5.22c-4.1-.02-7.08-.99-9.72,2.7-1.12,1.57-11.03,27.74-11.11,29.42l16.25,46.27,21.44-68.7-.46-8.46-9.88-1.23v-5.22h30.05v5.22c-7.61-.9-12,1.35-14.05,8.81l-33.09,109.93-5.23-.69-18.8-50.13-18.83,50.13-4.62.89-42.05-118.76-8.32-.18v-5.22h108.42ZM779.17,293.92c-.77-.5-11.58-.41-13.56-.18-1.77.21-2.37-.68-1.8,1.8l28.58,79.17,7.48-22.64-20.7-58.16ZM822.45,293.75h-18.29l8.49,24.83,9.8-24.83Z"/>
  <path class="cls-1" d="M673.55,494.89c10.19,1.13,10.2-11.13,13.17-18.17l7.6,1.32-2.48,11.62c5.83-4.46,12.13-18.72,20.28-10.43l-.06,10.42c1.52-5.36,19.49-20.73,20.15-8.57.4,7.24-8.86,22.23-5.78,30.77,10.32-10.03,14.08-45.62,34.42-31.77,2.67,7.77-8.22,21.29-16.75,20.05,2.49,30,26.22-7.3,28.11-18.3.56-3.27-2.15-7.71,1.44-10.52l4.38.06-1.29,6.52c25.78-6.69,3.37,21.79,6.53,33.96,11.2-5.26,12.05-24.5,17.19-33.08,2.65-4.42,8.67-1.79,8.85,2.32.26,6.07-9.41,22.5-7.75,30.75,12.07-6.81,12.8-33.7,28.2-35.25,11.52-1.16,12.81,13.94,1.84,14.35l2.59-9.14c-14.67,3.11-17.82,42.28.68,26.14,8.4-7.33,13.88-34.8,28.38-31.1,2.66.68,3.71,5.15,5.73-.33l8.01,3.28-8.81,32.05c10.65-8.13,14.23-22.94,18.39-35.15l7.56,1.35-1.13,10.29c3.52-3.42,14.6-17.99,18.97-9.12,2.48,5.02-7.24,25.41-5.91,32.63,6.88-3.9,8.25-12.83,11.44-19.23.84-1.68,1.1-3.44,2.94-1-3.94,9.16-7.95,27.89-21.47,21.43-5.56-3.93,3.58-23.34,3.15-29.94-9.17,7.79-15.74,19.14-16.98,31.35l-7.26-2.62.72-7.83c-2.75,1.42-3.27,5.63-5.85,7.84-6.19,5.31-14.2,2.04-12.44-6.54-7.32,8.75-17.23,9.72-16.98-3.92-5.15,4.1-8.13,11.45-15.34,12.82-6.7,1.27-16.3-3.53-14.7-11.51-6.38,10.16-18.58,20.12-20.23,1.29-.77-.03-3.65,10.5-10.42,10.57-18.55.19,1.82-34.25-2.66-34.09-7.77.46-8.81,10.78-12.64,17.4-5.52,9.54-14.32,21.7-26.81,14.25-4.36-2.6-3.59-5.14-4.93-9.42-4.48,5.34-4.04,12.39-13.07,11.87-11.75-.68-2.19-23.37-.35-30.51.45-1.74,2.46-2.5-.94-2.25-8.61,9.78-12.68,17.17-16.18,29.6-.62,2.19,1.06,3.16-2.14,3.1-13.49-.26.79-24.38-1.27-31.39-8.48,8.47-15.73,18.93-16.34,31.34-13.08-.43-5.07-9.12-5.86-16.97l-8.44,2.66c-1.6,5.49,1.29,21.85-6.23,18.53-8.72-3.84-2.01-18.07-3.5-19.95-12.76-7.23-14.37,2.97-21.64,9.89-8.61,8.2-26.42,19.8-26.16-.69,2.62-.44,3.45,2.28,5.95,2.64,7.56,1.1,19-11.32,24.06-16.37-12.19-5.28-28.24-8.41-40.45-1.96.79-23.51,32.4-7.05,45.74-4.58,5.34-3.92,25.72-34.33,29.37-34.7,11.04-1.09,1.23,16.65-.31,22.02-.74,2.57-5.13,19.04-4.28,19.87ZM663.07,492.29l5.24-19.59-13.02,16.33,7.78,3.27ZM745.39,496.19c5.02.93,14.11-11.2,11.74-14.35-6.76,2.29-8.91,8.53-11.74,14.35ZM864.24,483.15c-4.38-.64-6.73,3.12-8.55,6.46-1.02,1.87-6.59,15.86-2.55,15.71,6.74-5.6,11.61-13.13,11.1-22.17Z"/>
  <path class="cls-1" d="M716.65,288.52v31.35l-6.38-.16c-1.54-6.22-5.46-16.2-10.04-20.64-1.34-1.29-9.16-5.32-10.35-5.32h-22.86v49.63c7.92.98,14.71-.74,18.55-8.23,3.15-6.15.59-16,8.88-13.98v52.25l-5.08-.15c-1.46-14.12-6.2-24.67-22.35-23.36v53.55h24.16c.58,0,7.8-3.39,8.93-4.13,8.72-5.73,12.32-18.95,14.55-28.55l5.9-1.28-1.3,40.5h-90.13v-6.54s11.76,0,11.76,0v-109.72h-10.46s0-5.22,0-5.22h86.21Z"/>
  <path class="cls-1" d="M966.13,288.52v31.35c-7.82,1.65-7.44-7.4-10.22-12.63-3-5.65-9.67-13.49-16.55-13.49h-21.55v49.63c9.75.92,15.09-1.47,18.82-10.56,1.74-4.24,2.16-18.36,8.64-8.39l-1.23,48.39-5.34.61c.71-13.82-5.83-24.98-20.9-23.52v53.55h22.86c12.55,0,23.66-22.85,24.31-33.81l5.08-.15v38.53l-1.96,1.96h-89.47v-6.54s13.06,0,13.06,0v-109.72h-10.46s0-5.22,0-5.22h84.9Z"/>
  <path class="cls-1" d="M557.95,288.52l42.45,67.92v-59.43c-3.76-4.28-9.24-3.27-14.37-3.27v-5.22h33.97v5.22c-3.5-.42-13.06-.28-13.06,4.58v114.29l-5.34-.85-65.2-106.25v96.66l14.37,1.3v6.54h-33.97l-.74-5.25,11.2-1.92c2.35-2.11,2.4-4.89,2.66-7.79,2.72-30.25-2.08-64.63-.15-95.32-1.24-7.98-6.46-5.87-12.98-5.97v-5.22h41.15Z"/>
  <path class="cls-1" d="M437.14,511.88c14.33-8.76,12.85-41.56,36.55-33.96l6.12-15.72c2.73-.09,8.18-.87,8.24,3.23.08,5.25-9.25,24.56-11.09,32.08-1.15,4.69-2.2,9.5-1.93,14.38,7.98-3.21,15.48-34.08,19.13-35.15l6.67,3.11c-2.95,8.95-6.04,18.09-7.6,27.42-.16.94-2.02,4.79.73,4.6,5.49-.39,15.85-34.37,18.49-35.13l6.81,3.29-2.44,9.65c3.4-2.24,5.7-8.2,8.8-10.48,2.37-1.75,7.83-3.95,10.2-1.34,2.92,4.26-6.06,27.55-5.94,34.02,3.1.29,5.05-3.9,6.29-6.1,5.45-9.7,7.4-22.89,18.46-28.61,3.19.26,17.75-1.27,18.43,1.62l-9.22,34.4c8.68-4.71,9.21-15.98,15.65-22.2-1.18,7.23-6.19,16.81-11.22,22.06-2.05,2.14-5.29,2.93-6.66,4.45-5.94,6.55-8.05,23.57-23.26,14-2-7.33-.71-11.81,6.47-14.44,6.12-2.24,10.7.28,11.15-9.09-.37-.46-5.21,5.37-10.82,3.71-3.98-1.18-3.24-6.34-6.13-7.62-2.78,8.26-8.03,13.39-16.81,8.94-1.5-10.74,3.13-20.84,5.02-31.16-5.03,4.95-11.66,12.43-14.39,18.91-1.68,4-1.53,7.23-2.64,10.42-2.56,7.35-11.77,1.24-7.79-5.81-2.66,1.8-3.4,5.07-6.58,7.1-4.01,2.57-8.81,3.09-11.01-1.91-1.07-2.44.4-6.34-1.97-6.5-2.75,11.12-16.4,15.75-17.01,1.3-6.48,7.62-17.11,10.87-16.98-2.61-6.38,10.17-18.59,20.11-20.23,1.29-4.02,6.68-8.82,14.66-17,7.86l-.65-7.85c-6.41,8.93-14.19,17.52-20.23,2.62-4.15,8.9-16.93,11.68-17.18-.41-.08-3.84,6.27-27.43,8.61-29.06,2.89-2.01,7.83.5,7.87,3.96.02,1.88-3.74,9.2-4.55,12.43-1.49,5.93-2.98,12.15-3.24,18.3,9.82-2.76,14.3-31.98,18.2-34.69,2.89-2.01,7.83.5,7.87,3.96.02,1.88-3.74,9.2-4.55,12.43-1.49,5.93-2.98,12.15-3.24,18.3,10.81-4.77,13.03-28.36,17.61-33.97,2.71-3.32,8.83-.65,8.3,4.24-.94,8.55-9.43,20.13-6.98,29.72,13.99-10.93,13.66-34.61,21.8-47.42,2.63-4.15,9.45-2.14,9.78,1.03.16,1.56-9.1,25-10.39,29.7-1.49,5.43-2.48,11.17-3.54,16.7ZM469.78,483.15c-7.66-2.91-14.25,20.9-13.05,22.19,6.47.15,16.23-18.86,13.05-22.19ZM561.21,483.15c-8.98,1.4-12.44,14.33-11.74,22.19,2.24.28,5.9-4.12,6.82-5.55,3-4.65,5.68-11.06,4.92-16.64ZM552.07,518.41c-7.3-.7-13.15,2.39-11.74,10.44,4.56,3.03,13.09-9.28,11.74-10.44Z"/>
  <path class="cls-1" d="M413.62,288.52v5.22s-11.76,0-11.76,0v94.7c0,2.34-1.93,11.41-2.69,14.29-4.52,17.09-20.69,32.58-39.57,28.05-23.42-5.61-14.64-41.71,1.66-31.79,8.59,5.23,4.68,12.96,3.26,20.1-1.95,9.8,9.91,4.04,9.91-.61v-124.74h-11.76s0-5.22,0-5.22h50.94Z"/>
  <path class="cls-1" d="M1035.36,288.52v5.22s-14.37,0-14.37,0v109.72h21.55c13,0,22.73-22.99,24.35-33.78l5.04-.19-1.3,40.5h-86.21v-6.54s10.45,0,10.45,0v-109.72h-10.46s0-5.22,0-5.22h50.94Z"/>
  <path class="cls-1" d="M1130.71,288.52v5.22s-14.37,0-14.37,0v109.72h21.55c.58,0,7.8-3.39,8.93-4.13,5.89-3.87,8.98-10.87,11.56-17.18,2.29-5.59,1.28-14.66,8.89-12.66l-1.3,40.5h-86.21v-6.54s10.45,0,10.45,0v-109.72h-10.46s0-5.22,0-5.22h50.94Z"/>
  <path class="cls-1" d="M1022.3,496.19c14.78,1.34,6.19-27.07,21-17.44l-2.7,10.92c7.68-10.29,23.87-23.51,19.59,0,4.4-3.86,12.19-17.16,19.04-11.87,3.8,2.94-1.75,15.23-2.74,19.69-1.04,4.72-2.27,9.48-1.93,14.38,11.48-9.28,14.24-45.86,35.05-31.78,2.51,7.27-8.59,23.11-16.77,18.72-.63,6.16,1.03,15.08,8.73,12.04,10.86-4.28,20.38-33.51,23.52-34.27,2.63-.64,6.62.44,9.53.04-5.72,9.66-.08,20.07-2.6,30.02l8.5-13.08c-.37-1.44,1.97-4.11,3.24-2.58,1.23,1.48-8.79,17.23-10.89,19.13-6.78,6.14-20.44,6.68-20.46-4.77-7.77,9.74-24.85,14.44-27.43-1.31l-2.68.82c-1.63,6.52-7.19,12.49-14.29,8.99-6.58-3.25,1.8-26.12,3.93-32-2.79-.68-2.92,1.55-4.2,2.97-7.18,7.95-13.78,18.67-14.09,29.68-16.47.11-2.08-22.11-2.62-31.35-9.09,7.69-16.45,19.05-16.97,31.35-3.32.37-6.32-.23-7.64-3.56l1.75-13.45c-10.9-.69-11.25,18.66-23.22,16.77-16.42-2.6-5.7-40.85,11.17-37.42,8.58,1.74,8.08,12.96,6.19,19.35ZM1094.14,496.19c5.02.93,14.11-11.2,11.74-14.35-6.76,2.29-8.91,8.53-11.74,14.35ZM1017.06,483.15c-8.71-1.07-15.28,24.9-11.73,27.43,4.31.65,9.08-7.1,9.9-10.45.85-3.49-1.3-6.2-.77-9.69.37-2.41,3.36-4.28,2.61-7.28ZM1122.87,508.61v-22.86l-6.54,11.74,5.19,2.09-2.57,10.98c1.4.43,3.6-.86,3.91-1.95Z"/>
  <path class="cls-1" d="M976.29,454.72c3.82,3.56-9.28,27.3-8.85,33.64l12.87-.17,11.79-34.31c1.72-2.45,9.45-.31,9.07,3.55l-10.3,30.23c13.24,4.99-1.6,6.13-3.65,9.4-2.84,4.53-4.27,16.99-5.43,22.67-15.49-.49-3-16.45-4.58-24.83l-12.48.58-6.46,24.25c-15.11-.37-3.23-15.79-3.9-24.81l-4.44.02c-3.62-6.38,5.87-5.74,7.71-7.85,2.86-3.27,6.69-23.38,9.78-28.74-3.06-3.23-14.88,18.38-15.25,21.73-.15,1.35,1.26,4.05.88,4.37l-9.21-.57c-5.5-3.74,8.29-22.95,11.9-26.12,4.49-3.94,15.76-7.48,20.53-3.03Z"/>
  <path class="cls-1" d="M362.68,487.07c16.86,13.51-1.49,31.48-18.03,32.34-6.43.34-18.77-3.54-18.53-11.46,9.37,6.54,20.12,8.17,28.77-.6,7.8-7.91,9.98-18.12-3.93-18.97l-3.96,19.58c-13.63,2.89-6.86-14.23-4.58-22.22.75-2.61,5.66-17.25,6.52-18.29,1.6-1.93,6.53-2.03,7.96-.06,2.29,3.15-2.86,11.36-3.39,15.08,9.02,3.49,22.06-20.81,11.89-23.57-15.03-4.08-37.7,4.42-42.57,20.3-3.63-2.85-6.37-7.21-5.68-12.09,8.14-15.09,52.43-20.39,58.9-4.53,3.87,9.49-3.81,22.39-13.37,24.5Z"/>
  <polygon class="cls-1" points="1162.06 317.26 1162.06 237.58 1011.85 237.58 1011.85 233.66 1164.02 233.66 1165.97 235.62 1165.97 315.3 1162.06 317.26"/>
  <polygon class="cls-1" points="149.77 455.71 299.98 455.71 299.98 458.32 145.85 458.32 145.85 376.69 147.81 374.75 149.77 376.69 149.77 455.71"/>
  <path class="cls-1" d="M325.48,381.89c16,.44,16.63,29.37,0,29.55-17.23.18-16.14-29.99,0-29.55Z"/>
  <path class="cls-1" d="M440.37,381.89c15.81-.56,16.74,26.84,3.91,29.38-19.96,3.95-20.13-28.8-3.91-29.38Z"/>
  <path class="cls-1" d="M811.84,472.51c-1.93,1.2-6.99-.62-7.25-3.06l4.08-8.2,5.88,3.09-2.71,8.16Z"/>
  <path class="cls-1" d="M429.13,472.51c-9.8,2.49-9-11.74-.52-10.32,6.12,1.02,1.8,6.61.52,10.32Z"/>
  <path class="cls-1" d="M497.33,462.38c3.2-.66,6.44-.29,8.44,2.45-2.31,12.27-13.46,10.15-8.44-2.45Z"/>
</svg>