<?xml version="1.0" encoding="UTF-8"?>
<svg id="Capa_1" data-name="Capa 1" xmlns="http://www.w3.org/2000/svg" viewBox="0 0 1366 768">
  <defs>
    <style>
      .cls-1 {
        fill: #00003f;
        fill-rule: evenodd;
      }
    </style>
  </defs>
  <path class="cls-1" d="M796.082,265.178c28.191,0,215.914-1.741,233.854,1.742,34.917,6.49,65.671,39.419,65.671,75.512,0,16.78-.641,27.228-8.649,42.425-6.727,13.614-16.979,23.904-29.152,31.978-13.455,9.023-30.753,13.139-49.014,13.139h-106.355v-117.621c0-2.216-.641-2.849-2.883-2.849h-103.472v111.13h91.299c-.961,3.324-6.407,10.606-8.649,13.931l-54.139,81.368c-2.563,3.483-8.329,11.082-8.649,14.88h139.351c57.022,0,101.23,4.433,152.165-22.954,3.844-2.057,7.048-4.115,10.571-6.49,26.909-17.888,42.927-34.827,59.585-62.689,12.814-21.054,23.386-55.407,23.386-82.159,0-34.195-2.883-56.832-18.58-87.86-5.446-10.923-9.611-18.046-16.658-27.544-3.524-4.432-6.407-8.549-10.251-12.348-4.485-4.432-5.766-7.598-10.892-11.556-8.969-6.648-8.649-8.865-24.667-19.629-9.61-6.174-18.58-11.081-29.471-15.83-21.144-8.866-45.169-14.406-74.962-14.406h-151.845c-3.203,0-15.056,20.105-17.618,23.746l-49.974,74.086ZM534.039,272.777c-11.213,0-8.33.792-8.33,13.139v22.638c9.611.791,25.628,10.765,33.316,15.83,8.97,6.016,17.939,15.514,24.667,24.221,45.169,59.84,26.269,142.158-37.801,174.135l-16.339,7.123c87.135,0,175.871-.633,262.686,0,12.813.159,9.29.634,22.424-18.997l53.499-78.518c.96-1.9,1.922-3.167-1.602-3.167l-238.979.792V170.987c0-2.058-.96-2.692-2.883-2.692-24.346,0-23.385-2.374-27.87,5.225l-12.172,19.629c-7.689,12.506-44.849,68.862-50.615,79.627ZM671.788,599.517c1.601,0,8.329.317,9.29,0,3.523-.633,2.882-1.425,3.523-5.857.64-5.383,1.923-12.19,2.243-16.623,0,.159.321.159.321.475s.32.475.32.634c4.165,8.39,6.407,21.371,10.571,21.371,4.485,0,4.485-4.749,7.048-9.973,1.601-3.799,3.204-7.598,4.164-11.556,2.883,2.058,1.281-.475,2.883,10.29.641,4.116.961,7.599,1.922,11.24h11.212l-6.407-39.735c-.961-4.907-.961-3.483-12.174-3.483-1.922,8.074-6.407,16.306-7.688,21.688,0-.316-.321-.791-.321-.633s-.32-.475-.32-.633-.64-.951-.64-1.267c-.321-.792-.961-1.9-1.282-2.692-.641-2.216-.961-3.324-1.922-5.54-1.282-3.167-3.204-7.916-3.845-10.924h-11.532l-7.368,43.217ZM367.458,599.517h11.212v-24.379c3.203,2.058,14.095,16.781,17.939,21.688,2.883,3.482,1.281,2.691,11.533,2.691,1.922,0,2.562-.633,2.562-2.691v-37.676c0-4.117-3.524-2.85-12.173-2.85v24.379c-2.883-1.9-11.853-14.406-15.377-18.522-5.446-6.965-2.242-5.858-15.696-5.858v43.217ZM516.419,577.038c0,32.295,47.732,30.236,47.732.95,0-20.738-26.589-29.919-40.683-16.305-3.845,3.641-7.048,8.232-7.048,15.355ZM528.592,578.938c0-4.116.96-6.332,2.883-8.391,8.97-9.023,19.541-.158,19.541,4.591,0,7.282-.641,14.089-12.174,14.089-5.125,0-10.25-5.382-10.25-10.289ZM417.432,577.038c0,27.862,30.753,28.495,40.684,15.197,1.601-2.374,8.009-17.097,1.601-17.097h-19.861v9.34h8.65c-2.243,9.498-18.9,7.757-18.9-5.54,0-17.097,16.657-15.989,18.9-6.649,3.524-.792,8.329-3.166,11.212-4.749-4.805-17.888-42.285-17.413-42.285,9.498ZM303.388,599.517h16.979c19.861,0,27.549-25.962,13.774-37.36-8.649-7.599-17.619-5.858-30.753-5.858v43.217ZM319.406,589.227h-3.844v-22.637c19.54,0,15.056,22.637,3.844,22.637ZM1133.088,599.517c15.056,0,12.493,1.583,12.493-14.089,3.524,4.274,6.087,9.498,9.29,14.089h14.096c-.961-3.324-.961-2.058-2.883-4.59-1.281-1.425-1.922-2.533-3.203-4.274-1.922-2.533-5.446-6.175-6.087-9.024,12.173-2.85,12.814-25.329-7.688-25.329h-16.017v43.217ZM1145.581,575.138v-9.498c3.524,0,3.524.317,6.406.95,1.281,4.907,3.203,8.549-6.406,8.549ZM569.917,599.517c15.056,0,12.172,1.583,12.172-14.089l9.611,14.089h14.096c-4.165-7.44-10.892-12.822-12.174-17.888,12.174-2.85,12.814-25.329-7.688-25.329h-16.017v43.217ZM582.09,575.138v-9.498h2.883c2.243,0,4.805,2.533,4.805,4.749v.95c0,3.641-3.844,3.799-7.689,3.799ZM169.803,599.517c10.251,0,22.745,1.741,28.511-3.483,7.047-6.331,5.446-18.205-4.165-18.997,2.883-4.274,5.446-6.174,3.524-12.981-2.563-10.131-16.338-7.757-27.87-7.757v43.217ZM183.899,573.238h-2.883v-7.598h2.883c2.242,0,3.844,1.584,3.844,3.8s-1.602,3.799-3.844,3.799ZM184.859,590.178h-3.844v-8.549c3.844.158,9.29.792,9.29,4.749,0,2.849-2.563,3.799-5.446,3.799ZM764.048,599.517h11.212v-15.039l9.611,15.039h15.056c-4.165-6.174-8.969-11.556-13.455-17.888,12.174-.95,13.455-25.329-5.445-25.329h-16.979v43.217ZM782.949,574.189l-7.689.949v-9.498c5.126,0,6.087,1.108,8.649,3.8-.641,2.533-.641,1.741-.96,4.749ZM208.245,584.478c0,14.881,12.174,15.989,21.783,15.989,19.861,0,16.017-26.278,16.017-44.167h-12.172v27.228c0,8.074-14.096,11.873-14.096-4.59v-22.638h-11.533v28.178ZM1011.676,559.15c0,16.464-3.524,41.317,16.017,41.317,26.269,0,21.783-12.981,21.783-44.167h-11.532c0,18.997,3.523,33.878-7.368,33.878-4.485,0-6.727-2.217-6.727-6.649v-27.228c-8.649,0-12.174-1.267-12.174,2.85ZM1087.919,585.429c0,14.247,12.493,15.038,21.783,15.038,19.221,0,16.017-24.696,16.017-41.317,0-4.117-3.524-2.85-12.174-2.85,0,9.973,1.282,26.121-1.922,32.927-15.698,3.642-12.493-4.432-12.493-32.927h-11.212v29.129ZM624.696,599.517h12.174c3.844-8.232-2.242-7.44,16.018-7.44,3.524,0,3.203,4.432,4.805,7.44h12.174l-16.017-43.217h-13.135l-16.018,43.217ZM646.16,572.289h1.922c.962,3.799,2.563,6.332,2.883,10.29h-7.368c.321-3.957,1.922-6.491,2.563-10.29ZM858.23,599.517h12.173c.321-3.324,1.281-4.432,1.922-7.44h15.057c1.282,2.374,1.601,5.066,2.883,7.44h12.174c-.961-3.8-2.242-6.807-3.844-10.29l-12.173-32.927h-12.172l-12.495,31.82c-1.281,3.325-3.523,6.965-3.523,11.398ZM880.654,571.339c.32,3.799,2.563,8.549,3.844,11.24h-8.328c.64-3.641,1.922-9.34,4.484-11.24ZM926.144,567.539c0,6.016-.321,9.815,7.367,13.298,4.806,2.058,9.932,1.267,10.252,7.44-6.087,4.116-8.969,1.266-15.056-1.899l-4.485,9.498c11.213,7.44,32.035,7.915,32.035-11.399,0-5.54-4.805-9.023-8.969-10.923-9.29-3.957-8.97-1.582-8.97-5.066,0-6.014,10.892-.95,12.173-.95.962-4.115,2.883-5.224,3.844-9.339-5.446-.475-5.766-2.85-14.096-2.85-7.368,0-14.094,5.383-14.094,12.189ZM1172.811,599.517h22.424c4.485,0,4.485-10.29,0-10.29h-10.251v-6.648h12.173v-9.34h-12.173v-6.649c15.056,0,13.134,1.583,13.134-7.44,0-2.216-.641-2.85-2.883-2.85h-22.424v43.217ZM821.39,576.088c0,15.672,8.649,24.379,24.667,24.379,3.844,0,5.125-1.108,8.329-1.899v-13.139c-4.485,1.267-4.164,3.798-10.25,3.798-13.455,0-14.736-22.637.96-22.637,4.485,0,6.727,3.008,9.29,4.749v-14.09c-5.125-.475-3.203-1.899-11.212-1.899-10.891,0-21.783,9.973-21.783,20.738ZM732.013,599.517h24.347v-10.29h-13.135v-6.648h12.174v-9.34h-12.174v-6.649h13.135v-10.29h-24.347v43.217ZM486.947,559.15v37.676c0,3.957,3.845,2.691,12.494,2.691v-16.939h12.172v-9.34h-12.172v-6.649h13.134v-10.29h-22.745c-1.922,0-2.883.634-2.883,2.85ZM981.563,599.517h11.212v-16.939h12.173v-9.34h-12.173v-6.649h13.135v-10.29h-24.347v43.217ZM1053.963,566.59h8.649v32.927h12.172v-32.927h8.649v-10.29h-29.471v10.29ZM273.275,599.517h25.307v-10.29h-13.134v-32.927h-12.174v43.217ZM253.414,599.517h12.493v-43.217h-12.493v43.217ZM347.597,599.517h11.532v-43.217h-11.532v43.217ZM803.451,599.517h11.533v-43.217h-11.533v43.217ZM902.438,576.088c8.329,0,5.767,1.425,11.533-9.181,1.601-2.85,4.805-8.074,5.446-10.607h-10.251c-1.602,5.699-6.727,14.09-6.727,19.788ZM179.094,275.627c0,38.151,17.619,71.711,48.693,92.608,22.424,15.355,45.169,18.521,72.718,18.521h137.75c9.61,0,37.48-1.582,44.207.951,9.931,3.798,17.619,16.622,11.533,29.602-5.767,12.031-15.057,12.823-32.356,12.664h-229.689l-58.303,86.909c-3.203,4.274-6.087,8.232-8.649,12.981h270.373c44.528,0,78.805,5.699,114.685-19.788,29.151-20.579,47.091-52.715,47.091-91.341,0-28.97-13.775-57.781-28.191-72.345-20.182-19.788-33.957-29.919-65.671-35.302-15.377-2.532-78.806-1.582-98.987-1.582l-100.91.95c-12.493,0-23.386-8.707-23.386-19.788,0-6.806-.641-10.606,4.805-17.571,8.649-10.448,28.511-6.965,43.247-6.965h197.654c10.572-15.989,20.823-32.294,31.394-48.758,2.562-4.116,4.805-7.915,7.688-12.031l23.066-37.044h-258.2c-39.083,0-75.923-3.324-106.997,21.846-25.948,21.213-43.567,50.974-43.567,85.485Z"/>
</svg>