<?xml version="1.0" encoding="UTF-8"?>
<svg id="Capa_1" data-name="Capa 1" xmlns="http://www.w3.org/2000/svg" viewBox="0 0 16 16">
  <defs>
    <style>
      .cls-1 {
        fill: #00003f;
        fill-rule: evenodd;
      }
    </style>
  </defs>
  <path class="cls-1" d="M9.361,6.988c.339,0,2.599-.021,2.815.021.42.078.791.475.791.909,0,.202-.008.328-.104.511-.081.164-.204.288-.351.385-.162.109-.37.158-.59.158h-1.28v-1.416c0-.027-.008-.034-.035-.034h-1.246v1.338h1.099c-.012.04-.077.128-.104.168l-.652.98c-.031.042-.1.133-.104.179h1.678c.686,0,1.219.053,1.832-.276.046-.025.085-.05.127-.078.324-.215.517-.419.717-.755.154-.253.282-.667.282-.989,0-.412-.035-.684-.224-1.058-.066-.131-.116-.217-.201-.332-.042-.053-.077-.103-.123-.149-.054-.053-.069-.091-.131-.139-.108-.08-.104-.107-.297-.236-.116-.074-.224-.133-.355-.191-.255-.107-.544-.173-.902-.173h-1.828c-.039,0-.181.242-.212.286l-.602.892ZM6.207,7.08c-.135,0-.1.01-.1.158v.273c.116.01.309.13.401.191.108.072.216.187.297.292.544.72.316,1.711-.455,2.096l-.197.086c1.049,0,2.117-.008,3.162,0,.154.002.112.008.27-.229l.644-.945c.012-.023.023-.038-.019-.038l-2.877.01v-3.118c0-.025-.012-.032-.035-.032-.293,0-.282-.029-.336.063l-.147.236c-.093.151-.54.829-.609.959ZM1.934,7.114c0,.459.212.863.586,1.115.27.185.544.223.875.223h1.658c.116,0,.451-.019.532.011.12.046.212.2.139.356-.069.145-.181.154-.39.152h-2.765l-.702,1.046c-.039.051-.073.099-.104.156h3.255c.536,0,.949.069,1.381-.238.351-.248.567-.635.567-1.1,0-.349-.166-.696-.339-.871-.243-.238-.409-.36-.791-.425-.185-.03-.949-.019-1.192-.019l-1.215.011c-.15,0-.282-.105-.282-.238,0-.082-.008-.128.058-.212.104-.126.343-.084.521-.084h2.379c.127-.192.251-.389.378-.587.031-.05.058-.095.093-.145l.278-.446h-3.108c-.471,0-.914-.04-1.288.263-.312.255-.524.614-.524,1.029Z"/>
</svg>